<svg width="233" height="29" viewBox="0 0 233 29" fill="none" xmlns="http://www.w3.org/2000/svg">
<path d="M9.92 21L6.124 14.11H5.058V21H0.612V2.748H8.074C9.51267 2.748 10.7347 2.99933 11.74 3.502C12.7627 4.00467 13.5253 4.698 14.028 5.582C14.5307 6.44867 14.782 7.41933 14.782 8.494C14.782 9.70733 14.4353 10.7907 13.742 11.744C13.066 12.6973 12.0607 13.3733 10.726 13.772L14.938 21H9.92ZM5.058 10.964H7.814C8.62867 10.964 9.23533 10.7647 9.634 10.366C10.05 9.96733 10.258 9.404 10.258 8.676C10.258 7.98267 10.05 7.43667 9.634 7.038C9.23533 6.63933 8.62867 6.44 7.814 6.44H5.058V10.964ZM42.6889 2.748L37.9309 21H32.5489L29.6369 8.988L26.6209 21H21.2389L16.6109 2.748H21.3689L23.9949 16.034L27.2449 2.748H32.1329L35.2529 16.034L37.9049 2.748H42.6889ZM49.5184 6.154V2.02H56.7204V21H52.0924V6.154H49.5184ZM59.9178 7.376C59.9871 5.52133 60.5938 4.09133 61.7378 3.086C62.8818 2.08067 64.4331 1.578 66.3918 1.578C67.6918 1.578 68.8011 1.80333 69.7198 2.254C70.6558 2.70467 71.3578 3.32 71.8258 4.1C72.3111 4.88 72.5538 5.75533 72.5538 6.726C72.5538 7.87 72.2678 8.806 71.6958 9.534C71.1238 10.2447 70.4565 10.73 69.6938 10.99V11.094C70.6818 11.4233 71.4618 11.9693 72.0338 12.732C72.6058 13.4947 72.8918 14.474 72.8918 15.67C72.8918 16.7447 72.6405 17.698 72.1378 18.53C71.6525 19.3447 70.9331 19.986 69.9798 20.454C69.0438 20.922 67.9258 21.156 66.6258 21.156C64.5458 21.156 62.8818 20.6447 61.6338 19.622C60.4031 18.5993 59.7531 17.0567 59.6838 14.994H63.9998C64.0171 15.7567 64.2338 16.3633 64.6498 16.814C65.0658 17.2473 65.6725 17.464 66.4698 17.464C67.1458 17.464 67.6658 17.2733 68.0298 16.892C68.4111 16.4933 68.6018 15.9733 68.6018 15.332C68.6018 14.5 68.3331 13.902 67.7958 13.538C67.2758 13.1567 66.4351 12.966 65.2738 12.966H64.4418V9.352H65.2738C66.1578 9.352 66.8685 9.20467 67.4058 8.91C67.9605 8.598 68.2378 8.052 68.2378 7.272C68.2378 6.648 68.0645 6.16267 67.7178 5.816C67.3711 5.46933 66.8945 5.296 66.2878 5.296C65.6291 5.296 65.1351 5.49533 64.8058 5.894C64.4938 6.29267 64.3118 6.78667 64.2598 7.376H59.9178Z" fill="#B22222"/>
<path d="M94.4298 8.312C94.4298 9.23067 94.2131 10.0973 93.7798 10.912C93.3464 11.7267 92.6531 12.394 91.6998 12.914C90.7464 13.4167 89.5244 13.668 88.0338 13.668H84.7578V21H81.7938V2.93H88.0338C89.4204 2.93 90.5904 3.17267 91.5438 3.658C92.5144 4.126 93.2338 4.76733 93.7018 5.582C94.1871 6.39667 94.4298 7.30667 94.4298 8.312ZM88.0338 11.25C89.1604 11.25 90.0011 10.9987 90.5558 10.496C91.1104 9.976 91.3878 9.248 91.3878 8.312C91.3878 6.336 90.2698 5.348 88.0338 5.348H84.7578V11.25H88.0338ZM96.2686 13.772C96.2686 12.3333 96.5633 11.0593 97.1526 9.95C97.7593 8.84067 98.574 7.98267 99.5966 7.376C100.637 6.752 101.781 6.44 103.029 6.44C104.155 6.44 105.135 6.66533 105.967 7.116C106.816 7.54933 107.492 8.09533 107.995 8.754V6.674H110.985V21H107.995V18.868C107.492 19.544 106.807 20.1073 105.941 20.558C105.074 21.0087 104.086 21.234 102.977 21.234C101.746 21.234 100.619 20.922 99.5966 20.298C98.574 19.6567 97.7593 18.7727 97.1526 17.646C96.5633 16.502 96.2686 15.2107 96.2686 13.772ZM107.995 13.824C107.995 12.836 107.787 11.978 107.371 11.25C106.972 10.522 106.443 9.96733 105.785 9.586C105.126 9.20467 104.415 9.014 103.653 9.014C102.89 9.014 102.179 9.20467 101.521 9.586C100.862 9.95 100.325 10.496 99.9086 11.224C99.51 11.9347 99.3106 12.784 99.3106 13.772C99.3106 14.76 99.51 15.6267 99.9086 16.372C100.325 17.1173 100.862 17.6893 101.521 18.088C102.197 18.4693 102.907 18.66 103.653 18.66C104.415 18.66 105.126 18.4693 105.785 18.088C106.443 17.7067 106.972 17.152 107.371 16.424C107.787 15.6787 107.995 14.812 107.995 13.824ZM120.078 21.234C118.951 21.234 117.937 21.0347 117.036 20.636C116.152 20.22 115.45 19.6653 114.93 18.972C114.41 18.2613 114.132 17.4727 114.098 16.606H117.166C117.218 17.2127 117.504 17.724 118.024 18.14C118.561 18.5387 119.228 18.738 120.026 18.738C120.858 18.738 121.499 18.582 121.95 18.27C122.418 17.9407 122.652 17.5247 122.652 17.022C122.652 16.4847 122.392 16.086 121.872 15.826C121.369 15.566 120.563 15.28 119.454 14.968C118.379 14.6733 117.504 14.3873 116.828 14.11C116.152 13.8327 115.562 13.408 115.06 12.836C114.574 12.264 114.332 11.51 114.332 10.574C114.332 9.81133 114.557 9.118 115.008 8.494C115.458 7.85267 116.1 7.35 116.932 6.986C117.781 6.622 118.752 6.44 119.844 6.44C121.473 6.44 122.782 6.856 123.77 7.688C124.775 8.50267 125.312 9.62067 125.382 11.042H122.418C122.366 10.4007 122.106 9.88933 121.638 9.508C121.17 9.12667 120.537 8.936 119.74 8.936C118.96 8.936 118.362 9.08333 117.946 9.378C117.53 9.67267 117.322 10.0627 117.322 10.548C117.322 10.9293 117.46 11.25 117.738 11.51C118.015 11.77 118.353 11.978 118.752 12.134C119.15 12.2727 119.74 12.4547 120.52 12.68C121.56 12.9573 122.409 13.2433 123.068 13.538C123.744 13.8153 124.324 14.2313 124.81 14.786C125.295 15.3407 125.546 16.0773 125.564 16.996C125.564 17.8107 125.338 18.5387 124.888 19.18C124.437 19.8213 123.796 20.324 122.964 20.688C122.149 21.052 121.187 21.234 120.078 21.234ZM130.274 4.776C129.737 4.776 129.286 4.594 128.922 4.23C128.558 3.866 128.376 3.41533 128.376 2.878C128.376 2.34067 128.558 1.89 128.922 1.526C129.286 1.162 129.737 0.979999 130.274 0.979999C130.794 0.979999 131.236 1.162 131.6 1.526C131.964 1.89 132.146 2.34067 132.146 2.878C132.146 3.41533 131.964 3.866 131.6 4.23C131.236 4.594 130.794 4.776 130.274 4.776ZM131.73 6.674V21H128.766V6.674H131.73ZM138.586 8.754C139.019 8.026 139.591 7.46267 140.302 7.064C141.03 6.648 141.888 6.44 142.876 6.44V9.508H142.122C140.961 9.508 140.077 9.80267 139.47 10.392C138.881 10.9813 138.586 12.004 138.586 13.46V21H135.622V6.674H138.586V8.754ZM148.564 1.76V21H145.6V1.76H148.564ZM151.468 13.772C151.468 12.3333 151.763 11.0593 152.352 9.95C152.959 8.84067 153.773 7.98267 154.796 7.376C155.836 6.752 156.98 6.44 158.228 6.44C159.355 6.44 160.334 6.66533 161.166 7.116C162.015 7.54933 162.691 8.09533 163.194 8.754V6.674H166.184V21H163.194V18.868C162.691 19.544 162.007 20.1073 161.14 20.558C160.273 21.0087 159.285 21.234 158.176 21.234C156.945 21.234 155.819 20.922 154.796 20.298C153.773 19.6567 152.959 18.7727 152.352 17.646C151.763 16.502 151.468 15.2107 151.468 13.772ZM163.194 13.824C163.194 12.836 162.986 11.978 162.57 11.25C162.171 10.522 161.643 9.96733 160.984 9.586C160.325 9.20467 159.615 9.014 158.852 9.014C158.089 9.014 157.379 9.20467 156.72 9.586C156.061 9.95 155.524 10.496 155.108 11.224C154.709 11.9347 154.51 12.784 154.51 13.772C154.51 14.76 154.709 15.6267 155.108 16.372C155.524 17.1173 156.061 17.6893 156.72 18.088C157.396 18.4693 158.107 18.66 158.852 18.66C159.615 18.66 160.325 18.4693 160.984 18.088C161.643 17.7067 162.171 17.152 162.57 16.424C162.986 15.6787 163.194 14.812 163.194 13.824ZM182.973 6.674L174.185 27.734H171.117L174.029 20.766L168.387 6.674H171.689L175.719 17.594L179.905 6.674H182.973ZM198.184 6.674V21H195.22V19.31C194.752 19.8993 194.136 20.3673 193.374 20.714C192.628 21.0433 191.831 21.208 190.982 21.208C189.855 21.208 188.841 20.974 187.94 20.506C187.056 20.038 186.354 19.3447 185.834 18.426C185.331 17.5073 185.08 16.398 185.08 15.098V6.674H188.018V14.656C188.018 15.9387 188.338 16.9267 188.98 17.62C189.621 18.296 190.496 18.634 191.606 18.634C192.715 18.634 193.59 18.296 194.232 17.62C194.89 16.9267 195.22 15.9387 195.22 14.656V6.674H198.184ZM209.323 6.44C210.449 6.44 211.455 6.674 212.339 7.142C213.24 7.61 213.942 8.30333 214.445 9.222C214.947 10.1407 215.199 11.25 215.199 12.55V21H212.261V12.992C212.261 11.7093 211.94 10.73 211.299 10.054C210.657 9.36067 209.782 9.014 208.673 9.014C207.563 9.014 206.679 9.36067 206.021 10.054C205.379 10.73 205.059 11.7093 205.059 12.992V21H202.095V6.674H205.059V8.312C205.544 7.72267 206.159 7.26333 206.905 6.934C207.667 6.60467 208.473 6.44 209.323 6.44ZM224.751 6.44C225.861 6.44 226.84 6.66533 227.689 7.116C228.556 7.54933 229.232 8.09533 229.717 8.754V6.674H232.707V21.234C232.707 22.5513 232.43 23.7213 231.875 24.744C231.321 25.784 230.515 26.5987 229.457 27.188C228.417 27.7773 227.169 28.072 225.713 28.072C223.772 28.072 222.16 27.6127 220.877 26.694C219.595 25.7927 218.867 24.562 218.693 23.002H221.631C221.857 23.7473 222.333 24.3453 223.061 24.796C223.807 25.264 224.691 25.498 225.713 25.498C226.909 25.498 227.871 25.134 228.599 24.406C229.345 23.678 229.717 22.6207 229.717 21.234V18.842C229.215 19.518 228.53 20.09 227.663 20.558C226.814 21.0087 225.843 21.234 224.751 21.234C223.503 21.234 222.359 20.922 221.319 20.298C220.297 19.6567 219.482 18.7727 218.875 17.646C218.286 16.502 217.991 15.2107 217.991 13.772C217.991 12.3333 218.286 11.0593 218.875 9.95C219.482 8.84067 220.297 7.98267 221.319 7.376C222.359 6.752 223.503 6.44 224.751 6.44ZM229.717 13.824C229.717 12.836 229.509 11.978 229.093 11.25C228.695 10.522 228.166 9.96733 227.507 9.586C226.849 9.20467 226.138 9.014 225.375 9.014C224.613 9.014 223.902 9.20467 223.243 9.586C222.585 9.95 222.047 10.496 221.631 11.224C221.233 11.9347 221.033 12.784 221.033 13.772C221.033 14.76 221.233 15.6267 221.631 16.372C222.047 17.1173 222.585 17.6893 223.243 18.088C223.919 18.4693 224.63 18.66 225.375 18.66C226.138 18.66 226.849 18.4693 227.507 18.088C228.166 17.7067 228.695 17.152 229.093 16.424C229.509 15.6787 229.717 14.812 229.717 13.824Z" fill="black"/>
</svg>
