<svg width="76" height="34" viewBox="0 0 76 34" fill="none" xmlns="http://www.w3.org/2000/svg">
<path d="M15.3063 15L12.3863 9.7H11.5663V15H8.14625V0.96H13.8863C14.9929 0.96 15.9329 1.15333 16.7063 1.54C17.4929 1.92667 18.0796 2.46 18.4663 3.14C18.8529 3.80667 19.0463 4.55333 19.0463 5.38C19.0463 6.31333 18.7796 7.14667 18.2463 7.88C17.7263 8.61333 16.9529 9.13333 15.9263 9.44L19.1663 15H15.3063ZM11.5663 7.28H13.6863C14.3129 7.28 14.7796 7.12667 15.0863 6.82C15.4063 6.51333 15.5663 6.08 15.5663 5.52C15.5663 4.98667 15.4063 4.56667 15.0863 4.26C14.7796 3.95333 14.3129 3.8 13.6863 3.8H11.5663V7.28ZM40.5131 0.96L36.8531 15H32.7131L30.4731 5.76L28.1531 15H24.0131L20.4531 0.96H24.1131L26.1331 11.18L28.6331 0.96H32.3931L34.7931 11.18L36.8331 0.96H40.5131ZM45.7666 3.58V0.4H51.3066V15H47.7466V3.58H45.7666ZM53.7661 4.52C53.8194 3.09333 54.2861 1.99333 55.1661 1.22C56.0461 0.446666 57.2394 0.0599992 58.7461 0.0599992C59.7461 0.0599992 60.5994 0.233333 61.3061 0.58C62.0261 0.926666 62.5661 1.4 62.9261 2C63.2994 2.6 63.4861 3.27333 63.4861 4.02C63.4861 4.9 63.2661 5.62 62.8261 6.18C62.3861 6.72667 61.8728 7.1 61.2861 7.3V7.38C62.0461 7.63333 62.6461 8.05333 63.0861 8.64C63.5261 9.22667 63.7461 9.98 63.7461 10.9C63.7461 11.7267 63.5528 12.46 63.1661 13.1C62.7928 13.7267 62.2394 14.22 61.5061 14.58C60.7861 14.94 59.9261 15.12 58.9261 15.12C57.3261 15.12 56.0461 14.7267 55.0861 13.94C54.1394 13.1533 53.6394 11.9667 53.5861 10.38H56.9061C56.9194 10.9667 57.0861 11.4333 57.4061 11.78C57.7261 12.1133 58.1928 12.28 58.8061 12.28C59.3261 12.28 59.7261 12.1333 60.0061 11.84C60.2994 11.5333 60.4461 11.1333 60.4461 10.64C60.4461 10 60.2394 9.54 59.8261 9.26C59.4261 8.96667 58.7794 8.82 57.8861 8.82H57.2461V6.04H57.8861C58.5661 6.04 59.1128 5.92667 59.5261 5.7C59.9528 5.46 60.1661 5.04 60.1661 4.44C60.1661 3.96 60.0328 3.58667 59.7661 3.32C59.4994 3.05333 59.1328 2.92 58.6661 2.92C58.1594 2.92 57.7794 3.07333 57.5261 3.38C57.2861 3.68667 57.1461 4.06667 57.1061 4.52H53.7661Z" fill="#B22222"/>
<path d="M6.59134 23.656C6.59134 24.1153 6.48301 24.5487 6.26634 24.956C6.04967 25.3633 5.70301 25.697 5.22634 25.957C4.74967 26.2083 4.13867 26.334 3.39334 26.334H1.75534V30H0.27334V20.965H3.39334C4.08667 20.965 4.67167 21.0863 5.14834 21.329C5.63367 21.563 5.99334 21.8837 6.22734 22.291C6.47001 22.6983 6.59134 23.1533 6.59134 23.656ZM3.39334 25.125C3.95667 25.125 4.37701 24.9993 4.65434 24.748C4.93167 24.488 5.07034 24.124 5.07034 23.656C5.07034 22.668 4.51134 22.174 3.39334 22.174H1.75534V25.125H3.39334ZM7.51079 26.386C7.51079 25.6667 7.65812 25.0297 7.95279 24.475C8.25612 23.9203 8.66345 23.4913 9.17479 23.188C9.69479 22.876 10.2668 22.72 10.8908 22.72C11.4541 22.72 11.9438 22.8327 12.3598 23.058C12.7845 23.2747 13.1225 23.5477 13.3738 23.877V22.837H14.8688V30H13.3738V28.934C13.1225 29.272 12.7801 29.5537 12.3468 29.779C11.9135 30.0043 11.4195 30.117 10.8648 30.117C10.2495 30.117 9.68612 29.961 9.17479 29.649C8.66345 29.3283 8.25612 28.8863 7.95279 28.323C7.65812 27.751 7.51079 27.1053 7.51079 26.386ZM13.3738 26.412C13.3738 25.918 13.2698 25.489 13.0618 25.125C12.8625 24.761 12.5981 24.4837 12.2688 24.293C11.9395 24.1023 11.5841 24.007 11.2028 24.007C10.8215 24.007 10.4661 24.1023 10.1368 24.293C9.80745 24.475 9.53879 24.748 9.33079 25.112C9.13145 25.4673 9.03179 25.892 9.03179 26.386C9.03179 26.88 9.13145 27.3133 9.33079 27.686C9.53879 28.0587 9.80745 28.3447 10.1368 28.544C10.4748 28.7347 10.8301 28.83 11.2028 28.83C11.5841 28.83 11.9395 28.7347 12.2688 28.544C12.5981 28.3533 12.8625 28.076 13.0618 27.712C13.2698 27.3393 13.3738 26.906 13.3738 26.412ZM19.4153 30.117C18.852 30.117 18.345 30.0173 17.8943 29.818C17.4523 29.61 17.1013 29.3327 16.8413 28.986C16.5813 28.6307 16.4427 28.2363 16.4253 27.803H17.9593C17.9853 28.1063 18.1283 28.362 18.3883 28.57C18.657 28.7693 18.9907 28.869 19.3893 28.869C19.8053 28.869 20.126 28.791 20.3513 28.635C20.5853 28.4703 20.7023 28.2623 20.7023 28.011C20.7023 27.7423 20.5723 27.543 20.3123 27.413C20.061 27.283 19.658 27.14 19.1033 26.984C18.566 26.8367 18.1283 26.6937 17.7903 26.555C17.4523 26.4163 17.1577 26.204 16.9063 25.918C16.6637 25.632 16.5423 25.255 16.5423 24.787C16.5423 24.4057 16.655 24.059 16.8803 23.747C17.1057 23.4263 17.4263 23.175 17.8423 22.993C18.267 22.811 18.7523 22.72 19.2983 22.72C20.113 22.72 20.7673 22.928 21.2613 23.344C21.764 23.7513 22.0327 24.3103 22.0673 25.021H20.5853C20.5593 24.7003 20.4293 24.4447 20.1953 24.254C19.9613 24.0633 19.645 23.968 19.2463 23.968C18.8563 23.968 18.5573 24.0417 18.3493 24.189C18.1413 24.3363 18.0373 24.5313 18.0373 24.774C18.0373 24.9647 18.1067 25.125 18.2453 25.255C18.384 25.385 18.553 25.489 18.7523 25.567C18.9517 25.6363 19.2463 25.7273 19.6363 25.84C20.1563 25.9787 20.581 26.1217 20.9103 26.269C21.2483 26.4077 21.5387 26.6157 21.7813 26.893C22.024 27.1703 22.1497 27.5387 22.1583 27.998C22.1583 28.4053 22.0457 28.7693 21.8203 29.09C21.595 29.4107 21.2743 29.662 20.8583 29.844C20.451 30.026 19.97 30.117 19.4153 30.117ZM24.5137 21.888C24.245 21.888 24.0197 21.797 23.8377 21.615C23.6557 21.433 23.5647 21.2077 23.5647 20.939C23.5647 20.6703 23.6557 20.445 23.8377 20.263C24.0197 20.081 24.245 19.99 24.5137 19.99C24.7737 19.99 24.9947 20.081 25.1767 20.263C25.3587 20.445 25.4497 20.6703 25.4497 20.939C25.4497 21.2077 25.3587 21.433 25.1767 21.615C24.9947 21.797 24.7737 21.888 24.5137 21.888ZM25.2417 22.837V30H23.7597V22.837H25.2417ZM28.6694 23.877C28.8861 23.513 29.1721 23.2313 29.5274 23.032C29.8914 22.824 30.3204 22.72 30.8144 22.72V24.254H30.4374C29.8567 24.254 29.4147 24.4013 29.1114 24.696C28.8167 24.9907 28.6694 25.502 28.6694 26.23V30H27.1874V22.837H28.6694V23.877ZM33.6587 20.38V30H32.1767V20.38H33.6587ZM35.1104 26.386C35.1104 25.6667 35.2577 25.0297 35.5524 24.475C35.8557 23.9203 36.2631 23.4913 36.7744 23.188C37.2944 22.876 37.8664 22.72 38.4904 22.72C39.0537 22.72 39.5434 22.8327 39.9594 23.058C40.3841 23.2747 40.7221 23.5477 40.9734 23.877V22.837H42.4684V30H40.9734V28.934C40.7221 29.272 40.3797 29.5537 39.9464 29.779C39.5131 30.0043 39.0191 30.117 38.4644 30.117C37.8491 30.117 37.2857 29.961 36.7744 29.649C36.2631 29.3283 35.8557 28.8863 35.5524 28.323C35.2577 27.751 35.1104 27.1053 35.1104 26.386ZM40.9734 26.412C40.9734 25.918 40.8694 25.489 40.6614 25.125C40.4621 24.761 40.1977 24.4837 39.8684 24.293C39.5391 24.1023 39.1837 24.007 38.8024 24.007C38.4211 24.007 38.0657 24.1023 37.7364 24.293C37.4071 24.475 37.1384 24.748 36.9304 25.112C36.7311 25.4673 36.6314 25.892 36.6314 26.386C36.6314 26.88 36.7311 27.3133 36.9304 27.686C37.1384 28.0587 37.4071 28.3447 37.7364 28.544C38.0744 28.7347 38.4297 28.83 38.8024 28.83C39.1837 28.83 39.5391 28.7347 39.8684 28.544C40.1977 28.3533 40.4621 28.076 40.6614 27.712C40.8694 27.3393 40.9734 26.906 40.9734 26.412ZM50.8629 22.837L46.4689 33.367H44.9349L46.3909 29.883L43.5699 22.837H45.2209L47.2359 28.297L49.3289 22.837H50.8629ZM58.4683 22.837V30H56.9863V29.155C56.7523 29.4497 56.4447 29.6837 56.0633 29.857C55.6907 30.0217 55.292 30.104 54.8673 30.104C54.304 30.104 53.797 29.987 53.3463 29.753C52.9043 29.519 52.5533 29.1723 52.2933 28.713C52.042 28.2537 51.9163 27.699 51.9163 27.049V22.837H53.3853V26.828C53.3853 27.4693 53.5457 27.9633 53.8663 28.31C54.187 28.648 54.6247 28.817 55.1793 28.817C55.734 28.817 56.1717 28.648 56.4923 28.31C56.8217 27.9633 56.9863 27.4693 56.9863 26.828V22.837H58.4683ZM64.0377 22.72C64.6011 22.72 65.1037 22.837 65.5457 23.071C65.9964 23.305 66.3474 23.6517 66.5987 24.111C66.8501 24.5703 66.9757 25.125 66.9757 25.775V30H65.5067V25.996C65.5067 25.3547 65.3464 24.865 65.0257 24.527C64.7051 24.1803 64.2674 24.007 63.7127 24.007C63.1581 24.007 62.7161 24.1803 62.3867 24.527C62.0661 24.865 61.9057 25.3547 61.9057 25.996V30H60.4237V22.837H61.9057V23.656C62.1484 23.3613 62.4561 23.1317 62.8287 22.967C63.2101 22.8023 63.6131 22.72 64.0377 22.72ZM71.7521 22.72C72.3068 22.72 72.7964 22.8327 73.2211 23.058C73.6544 23.2747 73.9924 23.5477 74.2351 23.877V22.837H75.7301V30.117C75.7301 30.7757 75.5914 31.3607 75.3141 31.872C75.0368 32.392 74.6338 32.7993 74.1051 33.094C73.5851 33.3887 72.9611 33.536 72.2331 33.536C71.2624 33.536 70.4564 33.3063 69.8151 32.847C69.1738 32.3963 68.8098 31.781 68.7231 31.001H70.1921C70.3048 31.3737 70.5431 31.6727 70.9071 31.898C71.2798 32.132 71.7218 32.249 72.2331 32.249C72.8311 32.249 73.3121 32.067 73.6761 31.703C74.0488 31.339 74.2351 30.8103 74.2351 30.117V28.921C73.9838 29.259 73.6414 29.545 73.2081 29.779C72.7834 30.0043 72.2981 30.117 71.7521 30.117C71.1281 30.117 70.5561 29.961 70.0361 29.649C69.5248 29.3283 69.1174 28.8863 68.8141 28.323C68.5194 27.751 68.3721 27.1053 68.3721 26.386C68.3721 25.6667 68.5194 25.0297 68.8141 24.475C69.1174 23.9203 69.5248 23.4913 70.0361 23.188C70.5561 22.876 71.1281 22.72 71.7521 22.72ZM74.2351 26.412C74.2351 25.918 74.1311 25.489 73.9231 25.125C73.7238 24.761 73.4594 24.4837 73.1301 24.293C72.8008 24.1023 72.4454 24.007 72.0641 24.007C71.6828 24.007 71.3274 24.1023 70.9981 24.293C70.6688 24.475 70.4001 24.748 70.1921 25.112C69.9928 25.4673 69.8931 25.892 69.8931 26.386C69.8931 26.88 69.9928 27.3133 70.1921 27.686C70.4001 28.0587 70.6688 28.3447 70.9981 28.544C71.3361 28.7347 71.6914 28.83 72.0641 28.83C72.4454 28.83 72.8008 28.7347 73.1301 28.544C73.4594 28.3533 73.7238 28.076 73.9231 27.712C74.1311 27.3393 74.2351 26.906 74.2351 26.412Z" fill="black"/>
</svg>
